<?xml version="1.0" encoding="UTF-8"?>
<svg width="193px" height="72px" viewBox="0 0 193 72" version="1.1" xmlns="http://www.w3.org/2000/svg" xmlns:xlink="http://www.w3.org/1999/xlink">
    <!-- Generator: Sketch 43.2 (39069) - http://www.bohemiancoding.com/sketch -->
    <title>logotype-1in</title>
    <desc>Created with Sketch.</desc>
    <defs>
        <circle id="path-1" cx="16.6074416" cy="16.5640187" r="16.431686"></circle>
    </defs>
    <g id="Page-1" stroke="none" stroke-width="1" fill="none" fill-rule="evenodd">
        <g id="1in-letterhead-logo">
            <g id="Group-2" transform="translate(3.000000, 2.000000)" fill="#000000">
                <g id="Group-3" transform="translate(81.297761, 5.685144)">
                    <path d="M0.110690266,38.007343 L0.110690266,0.101862449 L5.81953863,0.101862449 C8.36228552,0.101862449 10.3882502,0.298261939 11.8974936,0.69106681 C13.4231417,1.08387168 14.7109006,1.74671996 15.760809,2.67963153 C16.8271223,3.64527684 17.6719577,4.84822371 18.2953409,6.28850824 C18.9351288,7.74515964 19.255018,9.21815581 19.255018,10.7075409 C19.255018,13.4244413 18.2133276,15.723952 16.1299156,17.606142 C18.1477083,18.2935505 19.7389519,19.4964974 20.903694,21.2150187 C22.0848409,22.9171732 22.6754055,24.8975347 22.6754055,27.1561627 C22.6754055,30.1185661 21.6255129,32.6226596 19.5256961,34.6685183 C18.2625251,35.9287673 16.8435295,36.8043817 15.2686669,37.2953877 C13.546161,37.770027 11.3889597,38.007343 8.79699833,38.007343 L0.110690266,38.007343 Z M5.84414573,16.3786329 L7.64046439,16.3786329 C9.77309082,16.3786329 11.3356264,15.9080925 12.3281179,14.9669975 C13.3206094,14.0259025 13.8168477,12.6388311 13.8168477,10.8057417 C13.8168477,9.02175288 13.308306,7.66741474 12.2912072,6.7426866 C11.2741085,5.81795847 9.79769695,5.35560134 7.86192834,5.35560134 L5.84414573,5.35560134 L5.84414573,16.3786329 Z M5.84414573,32.6308532 L9.38756885,32.6308532 C11.9795302,32.6308532 13.8824606,32.1234879 15.0964172,31.108742 C16.3759931,30.0121617 17.0157714,28.6209986 17.0157714,26.9352111 C17.0157714,25.2985241 16.4005999,23.9237277 15.1702385,22.8107805 C13.9726868,21.7142003 11.83189,21.1659184 8.74778412,21.1659184 L5.84414573,21.1659184 L5.84414573,32.6308532 Z M35.6433499,0.101862449 L35.6433499,38.007343 L29.9098944,38.007343 L29.9098944,0.101862449 L35.6433499,0.101862449 Z M50.5060413,15.2247744 L65.2949114,0.101862449 L72.9477211,0.101862449 L55.7719618,17.2624395 L73.0461495,38.007343 L65.3687327,38.007343 L51.6871823,21.1413682 L50.5060413,22.3197769 L50.5060413,38.007343 L44.7725858,38.007343 L44.7725858,0.101862449 L50.5060413,0.101862449 L50.5060413,15.2247744 Z M99.1296808,5.47835224 L83.8978828,5.47835224 L83.8978828,14.5864697 L98.6867529,14.5864697 L98.6867529,19.9629595 L83.8978828,19.9629595 L83.8978828,32.6308532 L99.1296808,32.6308532 L99.1296808,38.007343 L78.1644273,38.007343 L78.1644273,0.101862449 L99.1296808,0.101862449 L99.1296808,5.47835224 Z" id="BIKE-Copy"></path>
                    <path d="M2.50708864,49.726185 L8.95131407,49.726185 L8.95131407,43.895392 L11.2058254,43.895392 L11.2058254,58.8005979 L8.95131407,58.8005979 L8.95131407,51.8403301 L2.50708864,51.8403301 L2.50708864,58.8005979 L0.252577335,58.8005979 L0.252577335,43.895392 L2.50708864,43.895392 L2.50708864,49.726185 Z M14.0408975,51.2804196 C14.0408975,49.1823533 14.8117456,47.3803603 16.3534649,45.8743863 C17.8887335,44.3684124 19.7336084,43.6154367 21.888145,43.6154367 C24.0168788,43.6154367 25.8424019,44.3748481 27.364769,45.8936936 C28.8935869,47.4125391 29.6579844,49.2370571 29.6579844,51.3673022 C29.6579844,53.510419 28.8903616,55.3285013 27.355093,56.8216036 C25.8133737,58.3211418 23.9523723,59.0708996 21.7720328,59.0708996 C19.843271,59.0708996 18.1112818,58.4048057 16.5760132,57.072598 C14.8859276,55.598803 14.0408975,53.6680962 14.0408975,51.2804196 Z M16.3147609,51.3093805 C16.3147609,52.9569417 16.8695135,54.3116543 17.9790353,55.373559 C19.0821064,56.4354637 20.3561022,56.9664081 21.8010609,56.9664081 C23.368583,56.9664081 24.6909584,56.4258102 25.7682267,55.3445981 C26.845495,54.2505145 27.3841211,52.9183268 27.3841211,51.347995 C27.3841211,49.7583558 26.8519456,48.4261681 25.7875787,47.3513918 C24.7296626,46.2701798 23.4201884,45.7295819 21.859117,45.7295819 C20.3044963,45.7295819 18.9917968,46.2701798 17.9209792,47.3513918 C16.8501616,48.4197323 16.3147609,49.7390487 16.3147609,51.3093805 Z M32.4930565,58.8005979 L32.4930565,43.895392 L34.7378918,43.895392 C35.7377516,43.895392 36.5344022,43.9726203 37.1278673,44.1270792 C37.7277832,44.281538 38.2341562,44.5421834 38.6470016,44.9090232 C39.0662976,45.2887346 39.3985041,45.7617578 39.643631,46.328107 C39.8952086,46.9008919 40.0209956,47.480104 40.0209956,48.0657605 C40.0209956,49.134101 39.6113817,50.0383154 38.7921418,50.7784308 C39.5855789,51.0487338 40.2112882,51.521757 40.6692885,52.1975145 C41.1337395,52.8668362 41.3659615,53.6455547 41.3659615,54.5336931 C41.3659615,55.6985704 40.9531224,56.6832309 40.1274317,57.4877041 C39.6307272,57.9832597 39.0727493,58.3275691 38.4534813,58.5206426 C37.7761569,58.7072804 36.9279015,58.8005979 35.9086895,58.8005979 L32.4930565,58.8005979 Z M34.7475678,50.2957492 L35.4539169,50.2957492 C36.292509,50.2957492 36.9069297,50.1107231 37.2971976,49.7406655 C37.6874654,49.3706078 37.8825964,48.8251831 37.8825964,48.104375 C37.8825964,47.4028744 37.6826275,46.8703211 37.2826836,46.5066991 C36.8827396,46.1430772 36.3021846,45.961269 35.541001,45.961269 L34.7475678,45.961269 L34.7475678,50.2957492 Z M34.7475678,56.6864528 L36.1409139,56.6864528 C37.1601258,56.6864528 37.9083968,56.4869464 38.3857492,56.0879277 C38.8889044,55.65673 39.1404783,55.1096964 39.1404783,54.4468105 C39.1404783,53.8032319 38.8985803,53.2626339 38.4147772,52.8250005 C37.9438755,52.3938028 37.1020707,52.1782072 35.8893375,52.1782072 L34.7475678,52.1782072 L34.7475678,56.6864528 Z M43.3495444,51.2804196 C43.3495444,49.1823533 44.1203925,47.3803603 45.6621118,45.8743863 C47.1973804,44.3684124 49.0422553,43.6154367 51.1967919,43.6154367 C53.3255257,43.6154367 55.1510488,44.3748481 56.673416,45.8936936 C58.2022338,47.4125391 58.9666313,49.2370571 58.9666313,51.3673022 C58.9666313,53.510419 58.1990085,55.3285013 56.6637399,56.8216036 C55.1220206,58.3211418 53.2610192,59.0708996 51.0806798,59.0708996 C49.151918,59.0708996 47.4199287,58.4048057 45.8846602,57.072598 C44.1945746,55.598803 43.3495444,53.6680962 43.3495444,51.2804196 Z M45.6234078,51.3093805 C45.6234078,52.9569417 46.1781604,54.3116543 47.2876822,55.373559 C48.3907533,56.4354637 49.6647491,56.9664081 51.1097078,56.9664081 C52.6772299,56.9664081 53.9996053,56.4258102 55.0768736,55.3445981 C56.1541419,54.2505145 56.692768,52.9183268 56.692768,51.347995 C56.692768,49.7583558 56.1605925,48.4261681 55.0962256,47.3513918 C54.0383095,46.2701798 52.7288353,45.7295819 51.1677639,45.7295819 C49.6131432,45.7295819 48.3004437,46.2701798 47.2296261,47.3513918 C46.1588085,48.4197323 45.6234078,49.7390487 45.6234078,51.3093805 Z M64.0562148,49.8420286 L69.8714993,43.895392 L72.8807397,43.895392 L66.1268818,50.6432799 L72.9194437,58.8005979 L69.9005273,58.8005979 L64.5206634,52.1685536 L64.0562148,52.6319279 L64.0562148,58.8005979 L61.8017035,58.8005979 L61.8017035,43.895392 L64.0562148,43.895392 L64.0562148,49.8420286 Z M83.1760188,46.0095372 L77.186566,46.0095372 L77.186566,49.5910342 L83.0018505,49.5910342 L83.0018505,51.7051793 L77.186566,51.7051793 L77.186566,56.6864528 L83.1760188,56.6864528 L83.1760188,58.8005979 L74.9320547,58.8005979 L74.9320547,43.895392 L83.1760188,43.895392 L83.1760188,46.0095372 Z M86.1368791,58.8005979 L86.1368791,42.8817608 L97.0320711,54.2537378 L97.0320711,43.895392 L99.2865824,43.895392 L99.2865824,59.7080392 L88.3913904,48.3650231 L88.3913904,58.8005979 L86.1368791,58.8005979 Z" id="HOBOKEN-Copy"></path>
                </g>
            </g>
            <g id="Group-2-Copy-8" transform="translate(4.000000, 3.000000)">
                <path d="M34,59.0041667 C29.9316337,59.0041667 28.7682713,67.7280409 25.8632674,67.0120218 C22.9582635,66.2960026 25.9823438,58.0307541 22.3799844,56.14009 C18.7776249,54.249426 13.6933321,61.4333915 11.4538296,59.4493654 C9.2143271,57.4653393 15.7330697,51.5521854 13.4219743,48.2039856 C11.1108788,44.8557858 3.27040585,48.8540827 2.20944775,46.0565662 C1.14848965,43.2590496 9.66852923,41.0526226 9.17814186,37.0139192 C8.68775449,32.9752159 -0.112740762,32.8718826 0.247898281,29.9017529 C0.608537323,26.9316231 9.17803546,28.9373889 10.620698,25.1334003 C12.0633606,21.3294117 4.31893043,17.1481206 6.01854856,14.6857986 C7.71816668,12.2234767 14.3739546,17.9819384 17.4191705,15.2841125 C20.4643864,12.5862866 15.550177,5.28492101 18.1994122,3.89449513 C20.8486473,2.50406925 24.0659643,10.6960328 28.0161112,9.72240897 C31.9662582,8.74878519 31.0080556,1.69509773e-15 34,0 C36.9919444,-1.88737914e-15 36.0337418,8.74878519 39.9838888,9.72240897 C43.9340357,10.6960328 47.1513527,2.50406925 49.8005878,3.89449513 C52.449823,5.28492101 47.5356136,12.5862866 50.5808295,15.2841125 C53.6260454,17.9819384 60.2818333,12.2234767 61.9814514,14.6857986 C63.6810696,17.1481206 55.9366394,21.3294117 57.379302,25.1334003 C58.8219645,28.9373889 67.3914627,26.9316231 67.7521017,29.9017529 C68.1127408,32.8718826 59.3122455,32.9752159 58.8218581,37.0139192 C58.3314708,41.0526226 66.8515103,43.2590496 65.7905523,46.0565662 C64.7295942,48.8540827 56.8891212,44.8557858 54.5780257,48.2039856 C52.2669303,51.5521854 58.7856729,57.4653393 56.5461704,59.4493654 C54.3066679,61.4333915 49.2223751,54.249426 45.6200156,56.14009 C42.0176562,58.0307541 45.0417365,66.2960026 42.1367326,67.0120218 C39.2317287,67.7280409 38.0683663,59.0041667 34,59.0041667 Z M33.9169875,53.8811645 C44.8885552,53.8811645 53.7827682,44.9869516 53.7827682,34.0153839 C53.7827682,23.0438162 44.8885552,14.1496033 33.9169875,14.1496033 C22.9454199,14.1496033 14.0512069,23.0438162 14.0512069,34.0153839 C14.0512069,44.9869516 22.9454199,53.8811645 33.9169875,53.8811645 Z" id="Star-3" fill="#000000"></path>
                <g id="H-Copy-10" transform="translate(17.298533, 17.424650)">
                    <mask id="mask-2" fill="white">
                        <use xlink:href="#path-1"></use>
                    </mask>
                    <g id="Mask"></g>
                    <polygon fill="#000000" mask="url(#mask-2)" points="12.5573204 -3.83333333 12.5573204 12.1526091 20.8593463 12.1526091 20.8593463 -3.83333333 27.3333333 -3.83333333 27.3333333 41.1392559 20.8593463 41.1392559 20.8593463 17.9469665 12.5573204 17.9469665 12.5573204 41.1392559 6.08333333 41.1392559 6.08333333 -3.83333333"></polygon>
                </g>
            </g>
        </g>
    </g>
</svg>